<?xml version="1.0"?>
<svg xmlns="http://www.w3.org/2000/svg" id="Layer_1" enable-background="new 0 0 512 512" height="512px" viewBox="0 0 512 512" width="512px" class=""><g><g><path d="m491.966 53.5h-471.932c-11.047 0-20.034 8.987-20.034 20.034v256.349c0 4.143 3.357 7.5 7.5 7.5s7.5-3.357 7.5-7.5v-211.376h482v17.131c0 4.143 3.357 7.5 7.5 7.5s7.5-3.357 7.5-7.5v-62.104c0-11.047-8.987-20.034-20.034-20.034zm-386.041 15h39.692l-14.493 35.007h-39.692zm-30.728 35.007h-19.485l14.493-35.007h19.485zm86.654-35.007h19.485l-14.492 35.007h-19.486zm35.72 0h39.693l-14.493 35.007h-39.692zm55.928 0h19.485l-14.493 35.007h-19.485zm35.72 0h39.692l-14.493 35.007h-39.692zm55.926 0h19.485l-14.493 35.007h-19.485zm35.72 0h39.692l-14.492 35.007h-39.692zm55.927 0h19.486l-14.493 35.007h-19.485zm-421.792 5.034c0-2.775 2.259-5.034 5.034-5.034h33.936l-14.493 35.007h-24.477zm443.02 29.973 14.492-35.007h19.453c2.775 0 5.034 2.259 5.034 5.034v29.973z" data-original="#000000" class="active-path" data-old_color="#000000" fill="#FFFFFF"/><path d="m504.5 162.477c-4.143 0-7.5 3.357-7.5 7.5v223.523h-482v-29.008c0-4.143-3.357-7.5-7.5-7.5s-7.5 3.357-7.5 7.5v73.974c0 11.047 8.987 20.034 20.034 20.034h471.932c11.047 0 20.034-8.987 20.034-20.034v-268.489c0-4.143-3.357-7.5-7.5-7.5zm-398.578 246.023h39.692l-14.49 35h-39.692zm-30.725 35h-19.485l14.49-35h19.485zm86.651-35h19.485l-14.489 35h-19.486zm35.72 0h39.693l-14.49 35h-39.692zm55.928 0h19.485l-14.49 35h-19.485zm35.72 0h39.692l-14.49 35h-39.692zm55.926 0h19.485l-14.49 35h-19.485zm35.72 0h39.692l-14.49 35h-39.692zm55.927 0h19.485l-14.49 35h-19.484zm-421.789 29.966v-29.966h38.967l-14.49 35h-19.443c-2.775 0-5.034-2.259-5.034-5.034zm476.966 5.034h-33.946l14.49-35h24.49v29.966c0 2.775-2.259 5.034-5.034 5.034z" data-original="#000000" class="active-path" data-old_color="#000000" fill="#FFFFFF"/><path d="m263.493 345.502v-174.712c0-4.143-3.357-7.5-7.5-7.5s-7.5 3.357-7.5 7.5v174.712c0 4.143 3.357 7.5 7.5 7.5s7.5-3.357 7.5-7.5z" data-original="#000000" class="active-path" data-old_color="#000000" fill="#FFFFFF"/><path d="m454.164 280.752c4.143 0 7.5-3.357 7.5-7.5v-102.462c0-4.143-3.357-7.5-7.5-7.5h-68.595c-4.143 0-7.5 3.357-7.5 7.5v102.462c0 4.143 3.357 7.5 7.5 7.5zm-61.095-102.462h53.595v87.462h-53.595z" data-original="#000000" class="active-path" data-old_color="#000000" fill="#FFFFFF"/><path d="m57.839 178.29h147.073c4.143 0 7.5-3.357 7.5-7.5s-3.357-7.5-7.5-7.5h-147.073c-4.143 0-7.5 3.357-7.5 7.5s3.357 7.5 7.5 7.5z" data-original="#000000" class="active-path" data-old_color="#000000" fill="#FFFFFF"/><path d="m57.839 221.968h127.073c4.143 0 7.5-3.357 7.5-7.5s-3.357-7.5-7.5-7.5h-127.073c-4.143 0-7.5 3.357-7.5 7.5s3.357 7.5 7.5 7.5z" data-original="#000000" class="active-path" data-old_color="#000000" fill="#FFFFFF"/><path d="m57.839 265.646h147.073c4.143 0 7.5-3.357 7.5-7.5s-3.357-7.5-7.5-7.5h-147.073c-4.143 0-7.5 3.357-7.5 7.5s3.357 7.5 7.5 7.5z" data-original="#000000" class="active-path" data-old_color="#000000" fill="#FFFFFF"/><path d="m57.839 309.324h83.22c4.143 0 7.5-3.357 7.5-7.5s-3.357-7.5-7.5-7.5h-83.22c-4.143 0-7.5 3.357-7.5 7.5s3.357 7.5 7.5 7.5z" data-original="#000000" class="active-path" data-old_color="#000000" fill="#FFFFFF"/><path d="m204.912 294.324h-28.536c-4.143 0-7.5 3.357-7.5 7.5s3.357 7.5 7.5 7.5h28.536c4.143 0 7.5-3.357 7.5-7.5s-3.357-7.5-7.5-7.5z" data-original="#000000" class="active-path" data-old_color="#000000" fill="#FFFFFF"/><path d="m57.839 353.002h147.073c4.143 0 7.5-3.357 7.5-7.5s-3.357-7.5-7.5-7.5h-147.073c-4.143 0-7.5 3.357-7.5 7.5s3.357 7.5 7.5 7.5z" data-original="#000000" class="active-path" data-old_color="#000000" fill="#FFFFFF"/><path d="m339.592 345.502c0 4.143 3.357 7.5 7.5 7.5h107.072c4.143 0 7.5-3.357 7.5-7.5s-3.357-7.5-7.5-7.5h-107.072c-4.143 0-7.5 3.357-7.5 7.5z" data-original="#000000" class="active-path" data-old_color="#000000" fill="#FFFFFF"/></g></g> </svg>
