<?xml version="1.0"?>
<svg xmlns="http://www.w3.org/2000/svg" height="512px" viewBox="0 0 511 512" width="512px"><g><path d="m199.414062 340.085938c0 5.296874 2.621094 10.246093 7.011719 13.238281 5.3125 3.621093 9.8125 5.476562 11.535157 5.84375 7.773437 1.136719 96.75 10.648437 155.097656 16.8125l-4.203125 39.777343c-45.453125-4.800781-151.835938-16.089843-158-17.222656-10.863281-2-21.550781-8.476562-26.957031-12.15625-5.148438-3.507812-9.578126-7.804687-13.222657-12.648437l-.183593.191406-95.984376-94.195313c-3.765624-3.699218-8.734374-5.726562-14.003906-5.726562-.0625 0-.128906 0-.191406 0-5.34375.050781-10.34375 2.179688-14.085938 5.992188-3.742187 3.8125-5.777343 8.855468-5.726562 14.195312.050781 5.34375 2.179688 10.34375 5.992188 14.085938l148.4375 145.671874c11.859374 11.644532 27.550781 18.054688 44.171874 18.054688h273.398438v40h-273.398438c-27.167968 0-52.804687-10.480469-72.191406-29.507812l-148.4375-145.667969c-11.4375-11.226563-17.820312-26.234375-17.96875-42.261719-.152344-16.023438 5.945313-31.148438 17.171875-42.589844 11.226563-11.4375 26.234375-17.820312 42.261719-17.972656 16.054688-.132812 31.148438 5.949219 42.589844 17.175781l63.578125 62.390625c9.46875-17.535156 28.019531-29.480468 49.308593-29.480468l138.355469-.054688c.980469 0 1.972657.007812 2.96875.019531l-.238281 19.976563.242188-19.976563c48.742187.589844 95.457031 15.894531 135.097656 44.261719l20.660156 14.78125v49.1875l-43.9375-31.4375c-32.953125-23.582031-71.785156-36.304688-112.300781-36.792969-.820313-.011719-1.644531-.019531-2.464844-.015625l-138.378906.054688c-8.828125-.003906-16.003907 7.175781-16.003907 15.996094zm-13.914062-248.59375v-.539063c.292969-50.203125 41.398438-90.953125 91.882812-90.953125 24.453126 0 47.253907 9.585938 64.195313 26.988281 16.59375 17.046875 25.785156 39.742188 25.917969 63.964844h.003906v.539063c-.148438 36.414062-15.375 54.492187-26.507812 67.710937-8.414063 9.988281-13.492188 16.019531-13.492188 29.25v24.734375c0 21.402344-17.425781 38.8125-38.839844 38.8125h-22.554687c-21.289063 0-38.605469-17.410156-38.605469-38.8125v-24.734375c0-12.953125-5.003906-18.613281-14.085938-28.882813-11.726562-13.257812-27.757812-31.386718-27.914062-68.078124zm102 120.507812v-20h-20v20zm-62-120.734375c.070312 21.671875 7.546875 30.125 17.875 41.804687 4.796875 5.421876 10.109375 11.4375 14.527344 18.929688h38.863281c4.164063-7.316406 9.140625-13.230469 13.632813-18.5625 9.511718-11.292969 17.03125-20.222656 17.101562-42.175781-.117188-28.765625-22.089844-51.261719-50.117188-51.261719-28.53125 0-51.757812 22.976562-51.882812 51.265625zm213.574219 74.867187-42.441407-21.371093-17.992187 35.722656 42.441406 21.375zm7-130.265624-17.992188-35.726563-41.441406 20.871094 17.992187 35.726562zm-38.574219 86.132812h46v-40h-46zm-294.574219 44.132812 17.992188 35.726563 42.441406-21.375-17.992187-35.722656zm52.433594-145.121093-41.441406-20.871094-17.992188 35.726563 41.441407 20.871093zm-20.859375 60.988281h-46v40h46zm0 0" data-original="#000000" class="active-path" data-old_color="#000000" fill="#FFFFFF"/></g> </svg>
