<?xml version="1.0"?>
<svg xmlns="http://www.w3.org/2000/svg" height="512px" viewBox="0 0 59 60" width="512px" class=""><g><g id="Page-1" fill="none" fill-rule="evenodd"><g id="070---Search-Folder" fill="rgb(0,0,0)" fill-rule="nonzero"><path id="Shape" d="m.5 50.864 15.161 8.817c.9293794.4635481 2.0324014.4134357 2.9159191-.132476.8835176-.5459117 1.4218349-1.509957 1.4230809-2.548524v-6h21c1.2988706-.0022584 2.5153951-.6364478 3.261-1.7.239.3.135.146 6.5 6.526 1.5619994 1.5615278 4.0940006 1.5615278 5.656 0l1.414-1.414c1.5615278-1.5619994 1.5615278-4.0940006 0-5.656l-6.363-6.364c-.5044571-.5017258-1.2381209-.6964802-1.925-.511l-2.689-2.681c2.1858353-3.6864202 2.797-8.097117 1.695886-12.2389907-1.1011139-4.1418737-3.8219476-7.6667613-7.549886-9.7810093v-13.18c0-2.209139-1.790861-4-4-4h-36c-.55228475 0-1 .44771525-1 1v49c.00072257.3565418.19122471.6857295.5.864zm40.5-1.864h-21.0000001l.0000001-3.424c-.0000766-.1881975.0529555-.3725967.153-.532l1.647-2.615c5.1697572 5.110739 13.1294169 6.107748 19.4 2.43l1.8 1.8v.341c0 1.1045695-.8954305 2-2 2zm15.414 1.172c.7807639.7809997.7807639 2.0470003 0 2.828l-1.414 1.414c-.791167.755814-2.036833.755814-2.828 0l-6.364-6.364 4.243-4.242zm-11.314-4.243-2.218-2.217c1.0692596-.8073292 2.0233892-1.7567488 2.836-2.822l2.21 2.211zm-.336-7.129c-2.317509 3.510303-6.0905209 5.7925734-10.2755098 6.2155894-4.184989.423016-8.3383971-1.0580571-11.3114902-4.0335894-.12-.119-.227-.247-.342-.371.1067946-.3092546.1625237-.6338344.165-.961v-1.985c2.0031586 2.9846573 5.2346508 4.9186897 8.8116299 5.2737176 3.576979.355028 7.1255977-.9060542 9.6763701-3.4387176 3.1650049-3.1559507 4.3040623-7.8144183 2.9524362-12.0747455s-4.9679217-7.4101174-9.3734362-8.1642545c-.3575014-.0734897-.7266459.053626-.9631039.3316468s-.3026685.6627834-.172744 1.0038517c.1299244.3410683.4353453.5842641.7968479.6345015 4.8753362.8626434 8.3828986 5.1667035 8.2438102 10.1158156s-3.8828436 9.0493833-8.7989333 9.6368513c-4.9160897.5874681-9.5205887-2.5151948-10.821936-7.2921762-1.3013472-4.7769814 1.0932698-9.7863464 5.6280591-11.7734907.3276126-.1429062.5540995-.4497362.5941453-.8049102.0400459-.3551739-.1124333-.7047323-.4-.917s-.6665328-.2549961-.9941453-.1120898c-2.1051583.9203372-3.9024488 2.4247307-5.179 4.335v-3.054c5.0193044-5.2229287 13.1938974-5.7544892 18.847325-1.2255647 5.6534277 4.5289244 6.9184683 12.6225144 2.916675 18.6605647zm-7.764-36.8c1.1045695 0 2 .8954305 2 2v12.214c-5.3809939-2.1563659-11.5085826-1.2199938-16 2.445v-3.111c.0038951-1.4434527-.7740508-2.7758715-2.033-3.482l-16.422-10.066zm-35 .786 17.963 11.014c.6380308.3505171 1.0352181 1.0200286 1.037 1.748v24.1c.000265.1885374-.0527745.3733089-.153.533-.064.1-2.452 3.9-2.388 3.8-.3004071.4795623-.4594948 1.0341164-.459 1.6v11.419c.0016969.3366647-.1661263.6515862-.4465304.837918-.2804042.1863318-.6357476.2190605-.9454696.087082l-14.608-8.5z" data-original="#000000" class="active-path" data-old_color="#000000" fill="#FFFFFF"/><path id="Shape" d="m5 8c-.55228475 0-1 .44771525-1 1v2c0 .5522847.44771525 1 1 1s1-.4477153 1-1v-2c0-.55228475-.44771525-1-1-1z" data-original="#000000" class="active-path" data-old_color="#000000" fill="#FFFFFF"/><path id="Shape" d="m5 15c-.55228475 0-1 .4477153-1 1v18c0 .5522847.44771525 1 1 1s1-.4477153 1-1v-18c0-.5522847-.44771525-1-1-1z" data-original="#000000" class="active-path" data-old_color="#000000" fill="#FFFFFF"/></g></g></g> </svg>
